<?xml version="1.0" standalone="no"?>
<!DOCTYPE svg PUBLIC "-//W3C//DTD SVG 20010904//EN"
 "http://www.w3.org/TR/2001/REC-SVG-20010904/DTD/svg10.dtd">
<svg version="1.0" xmlns="http://www.w3.org/2000/svg"
 width="50.000000pt" height="67.000000pt" viewBox="0 0 50.000000 67.000000"
 preserveAspectRatio="xMidYMid meet">
<metadata>
Created by potrace 1.16, written by Peter Selinger 2001-2019
</metadata>
<g transform="translate(0.000000,67.000000) scale(0.100000,-0.100000)"
fill="#000000" stroke="none">
<path d="M181 655 c-43 -14 -92 -52 -114 -90 -7 -11 -14 -58 -17 -105 -5 -79
-7 -85 -28 -88 -22 -3 -22 -4 -22 -188 l0 -184 248 2 247 3 3 183 2 182 -25 0
c-24 0 -25 2 -25 73 -1 119 -48 189 -145 216 -50 14 -69 13 -124 -4z m138 -69
c47 -25 61 -57 61 -141 l0 -76 -132 3 -133 3 2 72 c1 40 7 82 13 93 28 53 128
77 189 46z"/>
</g>
</svg>
