<?xml version="1.0" standalone="no"?>
<!DOCTYPE svg PUBLIC "-//W3C//DTD SVG 20010904//EN"
 "http://www.w3.org/TR/2001/REC-SVG-20010904/DTD/svg10.dtd">
<svg version="1.0" xmlns="http://www.w3.org/2000/svg"
 width="86.000000pt" height="76.000000pt" viewBox="0 0 86.000000 76.000000"
 preserveAspectRatio="xMidYMid meet">

<g transform="translate(0.000000,76.000000) scale(0.100000,-0.100000)"
fill="#000000" stroke="none">
<path d="M150 734 c-46 -20 -97 -69 -123 -119 -26 -51 -28 -145 -3 -195 22
-43 385 -410 406 -410 21 0 384 367 405 409 25 50 24 145 -2 196 -75 143 -238
178 -368 80 l-34 -27 -34 26 c-73 56 -173 72 -247 40z m141 -66 c19 -6 55 -31
81 -55 26 -23 52 -43 57 -43 5 0 35 22 66 50 74 64 122 73 192 39 26 -13 56
-36 66 -51 27 -37 34 -116 13 -159 -9 -19 -88 -106 -176 -194 l-160 -160 -160
160 c-88 88 -167 175 -176 194 -21 43 -14 122 13 159 22 30 96 72 129 72 11 0
36 -5 55 -12z"/>
</g>
</svg>
